<?xml version="1.0" encoding="UTF-8"?>
<svg version="1.1" xmlns="http://www.w3.org/2000/svg" width="1299" height="1299">
<path d="M0 0 C1.34226469 0.00192643 2.68452951 0.00376665 4.02679443 0.00552368 C25.51276334 0.04632499 46.78693389 0.71456433 68.125 3.3125 C68.84979553 3.39971313 69.57459106 3.48692627 70.3213501 3.57678223 C134.87874696 11.41269027 197.48128643 29.09021284 256.125 57.3125 C257.23875 57.84746094 258.3525 58.38242188 259.5 58.93359375 C299.89512222 78.45489723 338.69696971 102.4321144 373.125 131.3125 C374.97831423 132.81355309 376.83249732 134.313534 378.6875 135.8125 C383.08965795 139.41198527 387.34635424 143.14007778 391.54296875 146.9765625 C393.65644002 148.88859854 395.79071393 150.76708579 397.94140625 152.63671875 C401.9964714 156.17761472 405.95204077 159.81373328 409.875 163.5 C410.56456787 164.14783447 411.25413574 164.79566895 411.96459961 165.46313477 C420.01702346 173.05893465 428.04728885 180.69278836 435.2265625 189.1328125 C437.24466071 191.44988822 439.32790606 193.69411397 441.42553711 195.93896484 C446.39063415 201.25590703 451.17641039 206.6499117 455.73046875 212.328125 C457.50740685 214.54277542 459.29995802 216.73742381 461.11328125 218.921875 C517.21148747 286.71218228 556.84010627 368.8546044 589.125 523.3125 C589.2085675 523.99757629 589.29213501 524.68265259 589.37823486 525.38848877 C594.54352424 568.44871776 594.37564418 613.26835429 589.125 656.3125 C589.04014343 657.01304504 588.95528687 657.71359009 588.86785889 658.43536377 C578.66763045 741.59789492 551.37448161 821.50484228 508.375 893.4375 C507.77341064 894.44393555 507.17182129 895.45037109 506.55200195 896.48730469 C495.27245129 915.16477303 482.68349455 933.21597447 469.125 950.3125 C468.44050781 951.17875 467.75601562 952.045 467.05078125 952.9375 C465.08764648 955.40588164 463.1093956 957.86118779 461.125 960.3125 C460.40570312 961.20710937 459.68640625 962.10171875 458.9453125 963.0234375 C454.59407604 968.39849431 450.12717085 973.62621733 445.4609375 978.73046875 C443.54890146 980.84394002 441.67041421 982.97821393 439.80078125 985.12890625 C436.25988528 989.1839714 432.62376672 993.13954077 428.9375 997.0625 C428.28966553 997.75206787 427.64183105 998.44163574 426.97436523 999.15209961 C419.37856535 1007.20452346 411.74471164 1015.23478885 403.3046875 1022.4140625 C400.98761178 1024.43216071 398.74338603 1026.51540606 396.49853516 1028.61303711 C391.18159297 1033.57813415 385.7875883 1038.36391039 380.109375 1042.91796875 C377.89472458 1044.69490685 375.70007619 1046.48745802 373.515625 1048.30078125 C339.09011281 1076.78668042 300.35968375 1100.83088631 260.19042969 1120.30419922 C257.99619042 1121.37538222 255.81491326 1122.47072689 253.6328125 1123.56640625 C197.94129835 1151.18705616 136.28298125 1167.63694664 74.8125 1175.5625 C73.64750977 1175.71388428 72.48251953 1175.86526855 71.28222656 1176.02124023 C47.95510085 1178.83302038 24.60422679 1179.69248923 1.125 1179.625 C-0.21636951 1179.6230733 -1.55773914 1179.6212331 -2.89910889 1179.61947632 C-24.02233699 1179.5793376 -44.90362242 1178.90394167 -65.875 1176.3125 C-66.58092285 1176.22764343 -67.2868457 1176.14278687 -68.01416016 1176.05535889 C-90.5382269 1173.34555007 -112.7639332 1169.38020247 -134.875 1164.3125 C-135.52666138 1164.16317017 -136.17832275 1164.01384033 -136.84973145 1163.85998535 C-182.26810053 1153.37443609 -226.37355245 1136.72324607 -267.78466797 1115.38867188 C-269.2765578 1114.62059778 -270.77061878 1113.85673484 -272.26611328 1113.09570312 C-307.0393803 1095.38617024 -340.09886233 1073.67926624 -370.13525391 1048.75244141 C-372.57511101 1046.7330368 -375.03919564 1044.74379039 -377.5 1042.75 C-395.26318807 1028.17507645 -395.26318807 1028.17507645 -403.11328125 1020.078125 C-404.82128737 1018.36633172 -406.59049613 1016.80951712 -408.4375 1015.25 C-417.22341334 1007.6843524 -425.60501167 999.24765969 -433.08203125 990.38671875 C-435.0572271 988.10168826 -437.10680094 985.89901629 -439.16894531 983.69262695 C-444.13689888 978.37409359 -448.92447837 972.97749724 -453.48046875 967.296875 C-455.25740685 965.08222458 -457.04995802 962.88757619 -458.86328125 960.703125 C-492.75146788 919.75189431 -520.65660374 872.98348753 -541.875 824.3125 C-542.33326172 823.26368652 -542.79152344 822.21487305 -543.26367188 821.13427734 C-568.67752479 762.34897146 -583.60433759 699.05742311 -588.875 635.3125 C-589.01856934 633.625802 -589.01856934 633.625802 -589.16503906 631.9050293 C-590.17148427 618.33154645 -590.11772104 604.72916553 -590.125 591.125 C-590.12600708 589.81803162 -590.12701416 588.51106323 -590.12805176 587.16448975 C-590.11691157 565.72846533 -589.33836671 544.60360097 -586.875 523.3125 C-586.74109863 522.09320801 -586.60719727 520.87391602 -586.46923828 519.61767578 C-579.61243196 458.63781159 -561.98291426 398.26161432 -535.99755859 342.71777344 C-534.83499701 340.22678676 -533.69275959 337.72704398 -532.55078125 335.2265625 C-526.83444283 322.83573618 -520.39059909 310.9559708 -513.53076172 299.16357422 C-511.92522526 296.39898343 -510.33848651 293.6242969 -508.75390625 290.84765625 C-487.74493178 254.33723402 -461.91338918 220.65950063 -433.27246094 189.82324219 C-431.83268085 188.26675037 -430.40362839 186.70096439 -428.9765625 185.1328125 C-420.10140681 175.40202627 -411.07441134 165.7065532 -401.01953125 157.17578125 C-398.71319329 155.17191384 -396.4827611 153.09996281 -394.25073242 151.01416016 C-388.9332604 146.04811036 -383.53839123 141.26173357 -377.859375 136.70703125 C-375.64472458 134.93009315 -373.45007619 133.13754198 -371.265625 131.32421875 C-336.84011281 102.83831958 -298.10968375 78.79411369 -257.94042969 59.32080078 C-255.74619042 58.24961778 -253.56491326 57.15427311 -251.3828125 56.05859375 C-195.6782778 28.4314862 -133.99026083 11.96021833 -72.5 4.0625 C-70.73994629 3.83542358 -70.73994629 3.83542358 -68.94433594 3.60375977 C-46.00309276 0.84600907 -23.09299661 -0.06624966 0 0 Z " fill="#3DB1C8" transform="translate(648.875,58.6875)"/>
<path d="M0 0 C7.04028132 4.37821718 10.41480374 9.44579364 13.03515625 17.265625 C13.85390961 23.13039561 13.82927654 28.90268382 13.76773071 34.81399536 C13.77161936 36.57439758 13.77815423 38.33479559 13.7870878 40.09517944 C13.80399088 44.90611247 13.78384344 49.7162719 13.75745678 54.52713561 C13.73557557 59.72554518 13.74854692 64.92388265 13.75737 70.12231445 C13.76808238 79.12236287 13.75739235 88.12217891 13.73247147 97.1221962 C13.69679321 110.14544764 13.69809343 123.16849716 13.7090693 136.19178341 C13.72626207 157.33735875 13.71969372 178.48285181 13.6953125 199.62841797 C13.69313505 201.52530712 13.69313505 201.52530712 13.6909136 203.46051727 C13.68500017 208.58461098 13.6790471 213.70870465 13.67303751 218.83279825 C13.65673033 232.94305409 13.64516897 247.05331222 13.63574219 261.16357422 C13.63489123 262.42722762 13.63404027 263.69088102 13.63316353 264.99282695 C13.61954639 286.06347433 13.62181796 307.13409747 13.63379133 328.20474517 C13.64027175 341.19568499 13.63141433 354.18644936 13.60270678 367.17736004 C13.58381267 376.07595514 13.57869517 384.97448751 13.58439972 393.87310065 C13.58714169 399.00653641 13.58320858 404.13974757 13.56170845 409.27314377 C13.54209908 413.97461146 13.54092511 418.67571414 13.55421655 423.37720059 C13.55574368 425.07553629 13.55051282 426.77389475 13.53774138 428.47218312 C13.44813538 441.08667821 14.77053797 450.7748711 23.7421875 460.28515625 C29.1203038 464.93030951 36.10429132 468.39171911 43.27963346 468.38933152 C44.15195146 468.39147488 45.02426947 468.39361824 45.92302135 468.39582655 C46.88394347 468.3930888 47.8448656 468.39035104 48.83490658 468.38753033 C50.36943782 468.38909729 50.36943782 468.38909729 51.93496969 468.3906959 C55.39708723 468.39302082 58.8591592 468.38818219 62.3212738 468.38346863 C64.81493976 468.38373866 67.30860571 468.38446254 69.80227143 468.38560373 C75.24177722 468.38713057 80.68126913 468.38560294 86.12077332 468.38145638 C94.20981238 468.3753459 102.29884414 468.3750372 110.38788507 468.37620422 C120.67412054 468.37765518 130.96035518 468.37799182 141.2465905 468.37551248 C142.47268153 468.37521925 142.47268153 468.37521925 143.72354208 468.3749201 C144.54434597 468.37472374 145.36514985 468.37452738 146.21082658 468.37432507 C167.32530653 468.36931424 188.4397652 468.37646806 209.55424127 468.38937713 C213.00212495 468.39147673 216.45000867 468.39350604 219.89789239 468.3955382 C226.00401187 468.39913974 232.11013131 468.40278317 238.21625073 468.40648448 C257.9819758 468.41845965 277.74770118 468.42948686 297.51342773 468.4387207 C298.41688464 468.43914811 299.32034154 468.43957551 300.25117593 468.44001586 C329.53935532 468.45374772 358.82750641 468.450566 388.11568596 468.4396561 C418.22166013 468.42855201 448.3275694 468.43730577 478.43352923 468.46996317 C482.68606887 468.47456054 486.93860872 468.47891663 491.19114876 468.48311806 C492.02808937 468.48395017 492.86502999 468.48478228 493.72733244 468.48563961 C507.19532344 468.49841772 520.66322219 468.49003829 534.13120574 468.47355135 C547.67104932 468.45738613 561.2107462 468.46281426 574.75057279 468.49029972 C582.79329104 468.50595495 590.83560263 468.50490956 598.87829927 468.47986487 C604.88658728 468.46299444 610.89437366 468.47743409 616.90264452 468.50395111 C619.33141724 468.50979561 621.76023999 468.50551475 624.1889705 468.49004986 C648.31841495 468.34721738 648.31841495 468.34721738 657.03515625 475.265625 C663.3103794 481.80920224 665.59508604 488.09089861 665.40625 497.1328125 C664.45049104 505.20143025 660.23342331 510.73281372 654.1953125 515.890625 C648.32260631 519.62876709 642.48667758 519.55157219 635.76532078 519.52289391 C634.2092175 519.52815302 634.2092175 519.52815302 632.62167779 519.53351837 C629.12863743 519.54285804 625.63576286 519.53790235 622.14271545 519.53305054 C619.6197235 519.53678552 617.09673271 519.54138643 614.57374376 519.54678118 C609.07937131 519.55648171 603.5850493 519.55992357 598.09066963 519.55786896 C589.91993238 519.55482099 581.74923418 519.56313854 573.57850451 519.57361821 C558.1350696 519.59297192 542.69164794 519.59858699 527.24820233 519.59973232 C515.3195994 519.6006512 503.39100168 519.60476678 491.46240044 519.61113358 C488.02942656 519.61292867 484.59645268 519.61470829 481.16347879 519.61648333 C479.8833084 519.61714648 479.8833084 519.61714648 478.57727598 519.61782302 C454.56609282 519.63013406 430.55491147 519.6380239 406.54372501 519.63713646 C405.63820605 519.6371053 404.73268708 519.63707414 403.79972815 519.63704204 C399.21014783 519.63687583 394.62056752 519.63667774 390.03098721 519.63647263 C389.11947719 519.63643274 388.20796718 519.63639285 387.26883565 519.63635175 C385.4255378 519.63627087 383.58223995 519.63618728 381.7389421 519.63610096 C353.072279 519.63487597 324.40566323 519.64987808 295.73901367 519.67724609 C263.53255834 519.70798087 231.32613411 519.72517766 199.11966318 519.72331965 C195.6838601 519.72317039 192.24805703 519.72307298 188.81225395 519.72301102 C187.96627305 519.72298771 187.12029216 519.7229644 186.24867548 519.72294038 C172.64477181 519.72287888 159.04090928 519.73564152 145.43701784 519.75287555 C131.75749868 519.76984656 118.07803958 519.77179446 104.39851571 519.7586569 C96.27650403 519.75127684 88.15467505 519.75489728 80.0326828 519.77454158 C73.96021046 519.78798483 67.88795238 519.78040473 61.81547742 519.76479514 C59.36453009 519.76172325 56.91356288 519.76536465 54.46263898 519.77651529 C38.55268862 519.84408631 24.20486716 519.19559717 9.84765625 511.578125 C8.85958984 511.06765625 8.85958984 511.06765625 7.8515625 510.546875 C-14.00773764 498.89705419 -27.59797592 480.43479059 -35.23828125 457.08203125 C-36.7297648 451.3005278 -37.0905735 445.64855987 -37.09627151 439.69554996 C-37.09832415 438.96218077 -37.10037678 438.22881157 -37.10249162 437.47321907 C-37.10813738 435.0205455 -37.10670738 432.56792852 -37.10528564 430.11524963 C-37.10787065 428.33712018 -37.11088419 426.5589913 -37.11428905 424.78086323 C-37.12234598 419.89804235 -37.12414788 415.01523619 -37.12488651 410.13240945 C-37.12673927 404.86511427 -37.13428757 399.59782667 -37.14102173 394.33053589 C-37.15459477 382.8163187 -37.16062774 371.30210499 -37.16503239 359.78788114 C-37.1677957 352.59943585 -37.17203314 345.41099191 -37.17653656 338.22254753 C-37.18872628 318.32134492 -37.19902722 298.42014338 -37.20241165 278.51893711 C-37.20263122 277.245655 -37.20285078 275.9723729 -37.203077 274.66050648 C-37.20329528 273.38418428 -37.20351356 272.10786207 -37.20373845 270.79286343 C-37.20418192 268.20655413 -37.20462848 265.62024484 -37.20507812 263.03393555 C-37.20541027 261.10958859 -37.20541027 261.10958859 -37.20574912 259.14636593 C-37.20969947 238.34615044 -37.22716205 217.54596993 -37.25043765 196.74576796 C-37.27413915 175.392792 -37.2866129 154.03983362 -37.28777957 132.68684429 C-37.28869683 120.69686059 -37.2944624 108.70692251 -37.31259918 96.71695137 C-37.32798371 86.51057201 -37.33313025 76.30425237 -37.32486108 66.09786362 C-37.32094918 60.88981858 -37.32191065 55.6818939 -37.33591843 50.4738636 C-37.34862433 45.70634753 -37.34748898 40.93904266 -37.33532771 36.17152702 C-37.33336501 34.44683886 -37.33647552 32.7221359 -37.34517208 30.99746854 C-37.35625076 28.65190346 -37.34878603 26.30708566 -37.33678055 23.96154118 C-37.33737764 22.65909775 -37.33797472 21.35665432 -37.33858991 20.01474291 C-36.63125156 12.91929912 -34.17921936 7.61274925 -28.90234375 2.80859375 C-20.13186778 -4.17595868 -10.13066479 -4.9189355 0 0 Z " fill="#FDFEFE" transform="translate(338.96484375,388.734375)"/>
<path d="M0 0 C-0.65795291 4.92034354 -1.50886803 9.76647117 -2.53125 14.625 C-2.75850014 15.71509369 -2.75850014 15.71509369 -2.99034119 16.82720947 C-3.49050856 19.21879189 -3.99485594 21.60946408 -4.5 24 C-4.67540314 24.83333862 -4.85080627 25.66667725 -5.03152466 26.52526855 C-7.85890051 39.93635245 -10.87520195 53.29700719 -13.99713135 66.64224243 C-17.52175686 81.71980711 -20.80168336 96.84389481 -23.99389648 111.99511719 C-29.34327794 137.34327794 -29.34327794 137.34327794 -32 140 C-49.325 122.675 -49.325 122.675 -67 105 C-70.86247739 106.9312387 -72.82692873 108.58192872 -75.83099365 111.59721375 C-76.3024589 112.06767571 -76.77392415 112.53813767 -77.25967622 113.02285606 C-78.83643734 114.59866551 -80.40594269 116.18150709 -81.97558594 117.7644043 C-83.10560101 118.896621 -84.23606484 120.02838998 -85.36694336 121.15974426 C-87.80126908 123.59700344 -90.23240381 126.0373865 -92.66112518 128.48023033 C-96.50634964 132.34773864 -100.35866554 136.20813064 -104.2119751 140.06758118 C-110.311824 146.17881541 -116.40698547 152.29470029 -122.50012231 158.41262609 C-133.39536745 169.35213275 -144.29608673 180.28617742 -155.20215058 191.21489841 C-159.02609156 195.0472149 -162.84720462 198.88232207 -166.66602278 202.71974313 C-169.05104382 205.11546746 -171.43814375 207.50911258 -173.82574463 209.90226555 C-174.92628291 211.00625138 -176.02594982 212.11110672 -177.12464142 213.21693039 C-182.39054505 218.51623834 -187.68139709 223.72723086 -193.36040115 228.58778286 C-195.39788464 230.34270548 -197.31517433 232.19487138 -199.21289062 234.09936523 C-199.93303345 234.81958359 -200.65317627 235.53980194 -201.3951416 236.28184509 C-202.14130737 237.03317215 -202.88747314 237.78449921 -203.65625 238.55859375 C-204.44398804 239.34774673 -205.23172607 240.13689972 -206.04333496 240.94996643 C-208.53127102 243.44345012 -211.01568624 245.94040784 -213.5 248.4375 C-215.1976841 250.14020587 -216.89559858 251.84268207 -218.59375 253.54492188 C-222.7318328 257.69396412 -226.86703935 261.84585576 -231 266 C-234.18963306 264.59186573 -236.3280734 262.91953332 -238.78387451 260.45663452 C-239.8901696 259.35446342 -239.8901696 259.35446342 -241.01881409 258.23002625 C-241.81794724 257.42370255 -242.61708038 256.61737885 -243.44042969 255.78662109 C-244.28957443 254.9377684 -245.13871918 254.08891571 -246.01359558 253.21434021 C-248.33717119 250.88961079 -250.65625126 248.56050655 -252.97340679 246.22938108 C-255.39749135 243.79278611 -257.82724848 241.36186129 -260.25640869 238.93032837 C-264.85374743 234.32677578 -269.44596453 229.71814913 -274.03636193 225.10767615 C-279.26335793 219.8583182 -284.49604043 214.61464448 -289.72920752 209.3714397 C-300.49247673 198.58727064 -311.24858507 187.79598816 -322 177 C-326.55593914 180.81182858 -330.89216433 184.75190356 -335.07165527 188.97158813 C-335.64031106 189.5415062 -336.20896686 190.11142426 -336.79485464 190.69861257 C-338.68008974 192.58918087 -340.56170303 194.48331174 -342.44335938 196.37744141 C-343.80223516 197.741516 -345.16135734 199.10534518 -346.52070618 200.46894836 C-349.43793741 203.39608783 -352.35369609 206.32468346 -355.26838684 209.25435257 C-359.87952585 213.88862833 -364.49560653 218.51796029 -369.1126709 223.14633179 C-382.23780738 236.30484368 -395.35874668 249.46752049 -408.46923828 262.640625 C-415.71742246 269.92334182 -422.97096048 277.20068125 -430.23049212 284.47208726 C-434.8199448 289.06963061 -439.40275241 293.67366453 -443.98078156 298.28258157 C-446.83121822 301.14904122 -449.68794599 304.00916556 -452.54649925 306.86752892 C-453.86851246 308.19196062 -455.18795409 309.51896507 -456.50458717 310.84874535 C-458.30561026 312.66699629 -460.11573409 314.47569003 -461.92834473 316.28237915 C-462.44402181 316.80747688 -462.9596989 317.33257461 -463.49100256 317.87358439 C-469.71220497 324.02730463 -475.96048876 327.09617783 -484.75 327.3125 C-492.00852496 327.24177138 -496.32277095 325.31215236 -501.75 320.625 C-507.16064127 314.31258518 -509.12763247 309.96201038 -509.3125 301.75 C-509.34988281 300.67234375 -509.38726562 299.5946875 -509.42578125 298.484375 C-508.41089916 290.17910135 -503.37946079 284.80192136 -497.60955811 279.12854004 C-496.86293388 278.37849811 -496.11630965 277.62845618 -495.34706044 276.85568571 C-492.85372562 274.35578522 -490.34640773 271.87041052 -487.83886719 269.38476562 C-486.04433722 267.59136441 -484.2506885 265.79708102 -482.45785522 264.00198364 C-478.6016226 260.14484142 -474.73936516 256.29389742 -470.87142181 252.44850159 C-465.27913059 246.88878842 -459.69798363 241.31799636 -454.11945072 235.74448246 C-445.06726289 226.70103818 -436.00618797 217.66655332 -426.93945312 208.63769531 C-418.13462441 199.86961103 -409.33402783 191.0973143 -400.5390625 182.31933594 C-399.9964802 181.77780453 -399.4538979 181.23627312 -398.89487371 180.67833167 C-396.17278644 177.96146474 -393.45078188 175.24451497 -390.72881842 172.52752399 C-368.16535177 150.00549013 -345.58728633 127.49814589 -323 105 C-319.21454346 108.20104553 -315.47447954 111.39999493 -311.96925354 114.91049194 C-310.89463615 115.98304733 -310.89463615 115.98304733 -309.79830933 117.07727051 C-309.03801422 117.84116089 -308.27771912 118.60505127 -307.49438477 119.39208984 C-306.67406265 120.21226593 -305.85374054 121.03244202 -305.00856018 121.87747192 C-302.3171297 124.56959507 -299.62925153 127.26523525 -296.94140625 129.9609375 C-295.06832847 131.83588176 -293.19505444 133.71062785 -291.32151794 135.58511353 C-286.90690868 140.00281957 -282.49485275 144.42306643 -278.08372873 148.84425223 C-273.05784199 153.88135166 -268.02908452 158.91558098 -263.00009453 163.94958186 C-252.66355267 174.29655065 -242.33058584 184.64708466 -232 195 C-225.32254367 189.51426014 -219.28325109 183.41724702 -213.18969727 177.30322266 C-212.00662876 176.1198717 -210.82333927 174.93674164 -209.6398468 173.7538147 C-206.44390591 170.55815952 -203.25104749 167.35944082 -200.05875134 164.16014528 C-196.71600976 160.81113264 -193.37041703 157.46497067 -190.02513123 154.11849976 C-183.69806339 147.78832965 -177.373548 141.45561578 -171.04995531 135.12197435 C-163.84755937 127.90838294 -156.64230786 120.69764667 -149.43682015 113.48714375 C-134.62137677 98.66126099 -119.80950661 83.83181282 -105 69 C-106.44474109 65.98440861 -107.86321119 63.8983948 -110.25634766 61.54833984 C-110.91688141 60.89441254 -111.57741516 60.24048523 -112.25796509 59.56674194 C-112.96947723 58.87182648 -113.68098938 58.17691101 -114.4140625 57.4609375 C-115.14370209 56.73887115 -115.87334167 56.01680481 -116.62509155 55.27285767 C-118.95365781 52.96871443 -121.2885266 50.67112312 -123.625 48.375 C-126.70616961 45.34680178 -129.78082951 42.31221423 -132.8515625 39.2734375 C-133.56712311 38.57447357 -134.28268372 37.87550964 -135.01992798 37.15536499 C-135.67415741 36.507742 -136.32838684 35.86011902 -137.00244141 35.19287109 C-137.58265045 34.62313568 -138.1628595 34.05340027 -138.76065063 33.46640015 C-140 32 -140 32 -140 30 C-120.52018305 25.42478303 -101.03123098 20.93850771 -81.4375 16.875 C-70.02832063 14.50778088 -58.65374989 12.05080878 -47.3125 9.375 C-45.51607056 8.95118042 -45.51607056 8.95118042 -43.68334961 8.51879883 C-41.31704079 7.96003083 -38.95074827 7.40119376 -36.58447266 6.84228516 C-30.39583003 5.38806795 -24.20043157 3.96553267 -18 2.5625 C-16.87762939 2.3032373 -15.75525879 2.04397461 -14.59887695 1.77685547 C-13.55562256 1.54240723 -12.51236816 1.30795898 -11.4375 1.06640625 C-10.52871094 0.85959229 -9.61992188 0.65277832 -8.68359375 0.43969727 C-5.7484887 -0.04120923 -2.96911121 -0.07439128 0 0 Z " fill="#FEFEFE" transform="translate(945,429)"/>
</svg>
